<svg xmlns="http://www.w3.org/2000/svg" viewBox="0 0 512 512" fill="#6366f1">
  <!-- AR Fashion Icon - T-shirt with AR frame -->
  <path d="M256 32c-17.7 0-32 14.3-32 32v16H160c-17.7 0-32 14.3-32 32v32h256v-32c0-17.7-14.3-32-32-32h-64V64c0-17.7-14.3-32-32-32zm0 0"/>
  <path d="M128 176v272c0 17.7 14.3 32 32 32h192c17.7 0 32-14.3 32-32V176H128zm48 64h160v160H176V240z"/>
  <!-- AR Corner markers -->
  <path d="M48 48h64v16H64v48H48V48zm0 352v64h64v-16H64v-48H48z"/>
  <path d="M400 48h64v64h-16V64h-48V48zm64 352v64h-64v-16h48v-48h16z"/>
</svg>
